<mxfile host="app.diagrams.net" modified="2022-10-30T15:27:07.365Z" agent="5.0 (Windows NT 10.0; Win64; x64) AppleWebKit/537.36 (KHTML, like Gecko) Chrome/107.0.0.0 Safari/537.36" etag="6cQs4X1NON81hhUnAsNK" version="20.5.1" type="github">
  <diagram id="rlQFBgrbbGkiHAVc1Uaj" name="Page-1">
    <mxGraphModel dx="1887" dy="1053" grid="1" gridSize="10" guides="1" tooltips="1" connect="1" arrows="1" fold="1" page="1" pageScale="1" pageWidth="850" pageHeight="1100" math="0" shadow="0">
      <root>
        <mxCell id="0" />
        <mxCell id="1" parent="0" />
        <mxCell id="tP4GP_7Pofm_deBcuKZN-51" value="" style="rounded=0;whiteSpace=wrap;html=1;" parent="1" vertex="1">
          <mxGeometry x="1060" y="580" width="855" height="480" as="geometry" />
        </mxCell>
        <mxCell id="tP4GP_7Pofm_deBcuKZN-53" value="" style="rounded=0;whiteSpace=wrap;html=1;" parent="1" vertex="1">
          <mxGeometry x="1210" y="610" width="670" height="390" as="geometry" />
        </mxCell>
        <mxCell id="tP4GP_7Pofm_deBcuKZN-50" value="" style="rounded=0;whiteSpace=wrap;html=1;" parent="1" vertex="1">
          <mxGeometry x="70" y="580" width="855" height="480" as="geometry" />
        </mxCell>
        <mxCell id="tP4GP_7Pofm_deBcuKZN-45" value="" style="rounded=0;whiteSpace=wrap;html=1;" parent="1" vertex="1">
          <mxGeometry x="220" y="630" width="670" height="390" as="geometry" />
        </mxCell>
        <mxCell id="tP4GP_7Pofm_deBcuKZN-1" value="user &lt;br&gt;(pencari lowongan)" style="shape=umlActor;verticalLabelPosition=bottom;verticalAlign=top;html=1;outlineConnect=0;" parent="1" vertex="1">
          <mxGeometry x="130" y="810" width="30" height="60" as="geometry" />
        </mxCell>
        <mxCell id="tP4GP_7Pofm_deBcuKZN-6" value="Menampilkan daftar pekerjaan" style="ellipse;whiteSpace=wrap;html=1;" parent="1" vertex="1">
          <mxGeometry x="400" y="700" width="120" height="80" as="geometry" />
        </mxCell>
        <mxCell id="tP4GP_7Pofm_deBcuKZN-7" value="Mencari lowongan pekerjaan" style="ellipse;whiteSpace=wrap;html=1;" parent="1" vertex="1">
          <mxGeometry x="400" y="800" width="120" height="80" as="geometry" />
        </mxCell>
        <mxCell id="tP4GP_7Pofm_deBcuKZN-8" value="Melamar pekerjaan" style="ellipse;whiteSpace=wrap;html=1;" parent="1" vertex="1">
          <mxGeometry x="400" y="890" width="120" height="80" as="geometry" />
        </mxCell>
        <mxCell id="tP4GP_7Pofm_deBcuKZN-9" value="Login" style="ellipse;whiteSpace=wrap;html=1;" parent="1" vertex="1">
          <mxGeometry x="740" y="800" width="120" height="80" as="geometry" />
        </mxCell>
        <mxCell id="tP4GP_7Pofm_deBcuKZN-15" value="" style="endArrow=none;html=1;rounded=0;exitX=0.5;exitY=0.5;exitDx=0;exitDy=0;exitPerimeter=0;entryX=0;entryY=0.5;entryDx=0;entryDy=0;" parent="1" source="tP4GP_7Pofm_deBcuKZN-1" target="tP4GP_7Pofm_deBcuKZN-6" edge="1">
          <mxGeometry width="50" height="50" relative="1" as="geometry">
            <mxPoint x="310" y="870" as="sourcePoint" />
            <mxPoint x="360" y="820" as="targetPoint" />
          </mxGeometry>
        </mxCell>
        <mxCell id="tP4GP_7Pofm_deBcuKZN-16" value="" style="endArrow=none;html=1;rounded=0;exitX=0.5;exitY=0.5;exitDx=0;exitDy=0;exitPerimeter=0;entryX=0;entryY=0.5;entryDx=0;entryDy=0;" parent="1" source="tP4GP_7Pofm_deBcuKZN-1" target="tP4GP_7Pofm_deBcuKZN-7" edge="1">
          <mxGeometry width="50" height="50" relative="1" as="geometry">
            <mxPoint x="220" y="810" as="sourcePoint" />
            <mxPoint x="270" y="760" as="targetPoint" />
          </mxGeometry>
        </mxCell>
        <mxCell id="tP4GP_7Pofm_deBcuKZN-17" value="" style="endArrow=none;html=1;rounded=0;entryX=0;entryY=0.5;entryDx=0;entryDy=0;exitX=0.5;exitY=0.5;exitDx=0;exitDy=0;exitPerimeter=0;" parent="1" source="tP4GP_7Pofm_deBcuKZN-1" target="tP4GP_7Pofm_deBcuKZN-8" edge="1">
          <mxGeometry width="50" height="50" relative="1" as="geometry">
            <mxPoint x="145" y="820" as="sourcePoint" />
            <mxPoint x="450" y="790" as="targetPoint" />
          </mxGeometry>
        </mxCell>
        <mxCell id="tP4GP_7Pofm_deBcuKZN-22" value="" style="endArrow=classic;html=1;rounded=0;exitX=1;exitY=0.5;exitDx=0;exitDy=0;entryX=0;entryY=0.5;entryDx=0;entryDy=0;dashed=1;" parent="1" source="tP4GP_7Pofm_deBcuKZN-6" target="tP4GP_7Pofm_deBcuKZN-9" edge="1">
          <mxGeometry width="50" height="50" relative="1" as="geometry">
            <mxPoint x="430" y="840" as="sourcePoint" />
            <mxPoint x="480" y="790" as="targetPoint" />
          </mxGeometry>
        </mxCell>
        <mxCell id="tP4GP_7Pofm_deBcuKZN-24" value="" style="endArrow=classic;html=1;rounded=0;dashed=1;exitX=1;exitY=0.5;exitDx=0;exitDy=0;entryX=0;entryY=0.5;entryDx=0;entryDy=0;" parent="1" source="tP4GP_7Pofm_deBcuKZN-7" target="tP4GP_7Pofm_deBcuKZN-9" edge="1">
          <mxGeometry width="50" height="50" relative="1" as="geometry">
            <mxPoint x="430" y="840" as="sourcePoint" />
            <mxPoint x="480" y="790" as="targetPoint" />
          </mxGeometry>
        </mxCell>
        <mxCell id="tP4GP_7Pofm_deBcuKZN-25" value="" style="endArrow=classic;html=1;rounded=0;dashed=1;exitX=1;exitY=0.5;exitDx=0;exitDy=0;entryX=0;entryY=0.5;entryDx=0;entryDy=0;" parent="1" source="tP4GP_7Pofm_deBcuKZN-8" target="tP4GP_7Pofm_deBcuKZN-9" edge="1">
          <mxGeometry width="50" height="50" relative="1" as="geometry">
            <mxPoint x="520" y="929.5699999999999" as="sourcePoint" />
            <mxPoint x="740" y="929.5699999999999" as="targetPoint" />
          </mxGeometry>
        </mxCell>
        <mxCell id="tP4GP_7Pofm_deBcuKZN-26" value="&amp;lt;&amp;lt;include&amp;gt;&amp;gt;" style="text;html=1;strokeColor=none;fillColor=none;align=center;verticalAlign=middle;whiteSpace=wrap;rounded=0;rotation=20;" parent="1" vertex="1">
          <mxGeometry x="580" y="750" width="60" height="30" as="geometry" />
        </mxCell>
        <mxCell id="tP4GP_7Pofm_deBcuKZN-27" value="&amp;lt;&amp;lt;include&amp;gt;&amp;gt;" style="text;html=1;strokeColor=none;fillColor=none;align=center;verticalAlign=middle;whiteSpace=wrap;rounded=0;rotation=0;" parent="1" vertex="1">
          <mxGeometry x="560" y="810" width="60" height="30" as="geometry" />
        </mxCell>
        <mxCell id="tP4GP_7Pofm_deBcuKZN-28" value="&amp;lt;&amp;lt;include&amp;gt;&amp;gt;" style="text;html=1;strokeColor=none;fillColor=none;align=center;verticalAlign=middle;whiteSpace=wrap;rounded=0;rotation=-15;" parent="1" vertex="1">
          <mxGeometry x="570" y="900" width="60" height="30" as="geometry" />
        </mxCell>
        <mxCell id="tP4GP_7Pofm_deBcuKZN-29" value="user &lt;br&gt;(pembuat lowongan)" style="shape=umlActor;verticalLabelPosition=bottom;verticalAlign=top;html=1;outlineConnect=0;" parent="1" vertex="1">
          <mxGeometry x="1120" y="790" width="30" height="60" as="geometry" />
        </mxCell>
        <mxCell id="tP4GP_7Pofm_deBcuKZN-30" value="Membuat Lowongan Pekerjaan" style="ellipse;whiteSpace=wrap;html=1;" parent="1" vertex="1">
          <mxGeometry x="1390" y="680" width="120" height="80" as="geometry" />
        </mxCell>
        <mxCell id="tP4GP_7Pofm_deBcuKZN-31" value="Menampilkan profile user pelamar" style="ellipse;whiteSpace=wrap;html=1;" parent="1" vertex="1">
          <mxGeometry x="1390" y="780" width="120" height="80" as="geometry" />
        </mxCell>
        <mxCell id="tP4GP_7Pofm_deBcuKZN-32" value="Menerima atau menolak pelamar" style="ellipse;whiteSpace=wrap;html=1;" parent="1" vertex="1">
          <mxGeometry x="1390" y="870" width="120" height="80" as="geometry" />
        </mxCell>
        <mxCell id="tP4GP_7Pofm_deBcuKZN-33" value="Login" style="ellipse;whiteSpace=wrap;html=1;" parent="1" vertex="1">
          <mxGeometry x="1730" y="780" width="120" height="80" as="geometry" />
        </mxCell>
        <mxCell id="tP4GP_7Pofm_deBcuKZN-34" value="" style="endArrow=none;html=1;rounded=0;exitX=0.5;exitY=0.5;exitDx=0;exitDy=0;exitPerimeter=0;entryX=0;entryY=0.5;entryDx=0;entryDy=0;" parent="1" source="tP4GP_7Pofm_deBcuKZN-29" target="tP4GP_7Pofm_deBcuKZN-30" edge="1">
          <mxGeometry width="50" height="50" relative="1" as="geometry">
            <mxPoint x="1300" y="850" as="sourcePoint" />
            <mxPoint x="1350" y="800" as="targetPoint" />
          </mxGeometry>
        </mxCell>
        <mxCell id="tP4GP_7Pofm_deBcuKZN-35" value="" style="endArrow=none;html=1;rounded=0;exitX=0.5;exitY=0.5;exitDx=0;exitDy=0;exitPerimeter=0;entryX=0;entryY=0.5;entryDx=0;entryDy=0;" parent="1" source="tP4GP_7Pofm_deBcuKZN-29" target="tP4GP_7Pofm_deBcuKZN-31" edge="1">
          <mxGeometry width="50" height="50" relative="1" as="geometry">
            <mxPoint x="1210" y="790" as="sourcePoint" />
            <mxPoint x="1260" y="740" as="targetPoint" />
          </mxGeometry>
        </mxCell>
        <mxCell id="tP4GP_7Pofm_deBcuKZN-36" value="" style="endArrow=none;html=1;rounded=0;entryX=0;entryY=0.5;entryDx=0;entryDy=0;exitX=0.5;exitY=0.5;exitDx=0;exitDy=0;exitPerimeter=0;" parent="1" source="tP4GP_7Pofm_deBcuKZN-29" target="tP4GP_7Pofm_deBcuKZN-32" edge="1">
          <mxGeometry width="50" height="50" relative="1" as="geometry">
            <mxPoint x="1135" y="800" as="sourcePoint" />
            <mxPoint x="1440" y="770" as="targetPoint" />
          </mxGeometry>
        </mxCell>
        <mxCell id="tP4GP_7Pofm_deBcuKZN-37" value="" style="endArrow=classic;html=1;rounded=0;exitX=1;exitY=0.5;exitDx=0;exitDy=0;entryX=0;entryY=0.5;entryDx=0;entryDy=0;dashed=1;" parent="1" source="tP4GP_7Pofm_deBcuKZN-30" target="tP4GP_7Pofm_deBcuKZN-33" edge="1">
          <mxGeometry width="50" height="50" relative="1" as="geometry">
            <mxPoint x="1420" y="820" as="sourcePoint" />
            <mxPoint x="1470" y="770" as="targetPoint" />
          </mxGeometry>
        </mxCell>
        <mxCell id="tP4GP_7Pofm_deBcuKZN-38" value="" style="endArrow=classic;html=1;rounded=0;dashed=1;exitX=1;exitY=0.5;exitDx=0;exitDy=0;entryX=0;entryY=0.5;entryDx=0;entryDy=0;" parent="1" source="tP4GP_7Pofm_deBcuKZN-31" target="tP4GP_7Pofm_deBcuKZN-33" edge="1">
          <mxGeometry width="50" height="50" relative="1" as="geometry">
            <mxPoint x="1420" y="820" as="sourcePoint" />
            <mxPoint x="1470" y="770" as="targetPoint" />
          </mxGeometry>
        </mxCell>
        <mxCell id="tP4GP_7Pofm_deBcuKZN-39" value="" style="endArrow=classic;html=1;rounded=0;dashed=1;exitX=1;exitY=0.5;exitDx=0;exitDy=0;entryX=0;entryY=0.5;entryDx=0;entryDy=0;" parent="1" source="tP4GP_7Pofm_deBcuKZN-32" target="tP4GP_7Pofm_deBcuKZN-33" edge="1">
          <mxGeometry width="50" height="50" relative="1" as="geometry">
            <mxPoint x="1510" y="909.5699999999999" as="sourcePoint" />
            <mxPoint x="1730" y="909.5699999999999" as="targetPoint" />
          </mxGeometry>
        </mxCell>
        <mxCell id="tP4GP_7Pofm_deBcuKZN-40" value="&amp;lt;&amp;lt;include&amp;gt;&amp;gt;" style="text;html=1;strokeColor=none;fillColor=none;align=center;verticalAlign=middle;whiteSpace=wrap;rounded=0;rotation=20;" parent="1" vertex="1">
          <mxGeometry x="1570" y="730" width="60" height="30" as="geometry" />
        </mxCell>
        <mxCell id="tP4GP_7Pofm_deBcuKZN-41" value="&amp;lt;&amp;lt;include&amp;gt;&amp;gt;" style="text;html=1;strokeColor=none;fillColor=none;align=center;verticalAlign=middle;whiteSpace=wrap;rounded=0;rotation=0;" parent="1" vertex="1">
          <mxGeometry x="1550" y="790" width="60" height="30" as="geometry" />
        </mxCell>
        <mxCell id="tP4GP_7Pofm_deBcuKZN-42" value="&amp;lt;&amp;lt;include&amp;gt;&amp;gt;" style="text;html=1;strokeColor=none;fillColor=none;align=center;verticalAlign=middle;whiteSpace=wrap;rounded=0;rotation=-15;" parent="1" vertex="1">
          <mxGeometry x="1560" y="880" width="60" height="30" as="geometry" />
        </mxCell>
        <mxCell id="tP4GP_7Pofm_deBcuKZN-46" value="Ar.gent&lt;br&gt;Website pencari lowongan pekerjaan" style="text;html=1;strokeColor=none;fillColor=none;align=center;verticalAlign=middle;whiteSpace=wrap;rounded=0;" parent="1" vertex="1">
          <mxGeometry x="487.5" y="640" width="135" height="30" as="geometry" />
        </mxCell>
        <mxCell id="tP4GP_7Pofm_deBcuKZN-54" value="Ar.gent&lt;br&gt;Website pencari lowongan pekerjaan" style="text;html=1;strokeColor=none;fillColor=none;align=center;verticalAlign=middle;whiteSpace=wrap;rounded=0;" parent="1" vertex="1">
          <mxGeometry x="1477.5" y="620" width="135" height="30" as="geometry" />
        </mxCell>
        <mxCell id="tP4GP_7Pofm_deBcuKZN-55" value="" style="rounded=0;whiteSpace=wrap;html=1;" parent="1" vertex="1">
          <mxGeometry x="70" y="50" width="620" height="480" as="geometry" />
        </mxCell>
        <mxCell id="tP4GP_7Pofm_deBcuKZN-56" value="" style="rounded=0;whiteSpace=wrap;html=1;" parent="1" vertex="1">
          <mxGeometry x="220" y="100" width="430" height="390" as="geometry" />
        </mxCell>
        <mxCell id="tP4GP_7Pofm_deBcuKZN-57" value="user" style="shape=umlActor;verticalLabelPosition=bottom;verticalAlign=top;html=1;outlineConnect=0;" parent="1" vertex="1">
          <mxGeometry x="130" y="280" width="30" height="60" as="geometry" />
        </mxCell>
        <mxCell id="tP4GP_7Pofm_deBcuKZN-58" value="Register" style="ellipse;whiteSpace=wrap;html=1;" parent="1" vertex="1">
          <mxGeometry x="400" y="170" width="120" height="80" as="geometry" />
        </mxCell>
        <mxCell id="tP4GP_7Pofm_deBcuKZN-59" value="Login" style="ellipse;whiteSpace=wrap;html=1;" parent="1" vertex="1">
          <mxGeometry x="400" y="270" width="120" height="80" as="geometry" />
        </mxCell>
        <mxCell id="tP4GP_7Pofm_deBcuKZN-60" value="Menginput data personal" style="ellipse;whiteSpace=wrap;html=1;" parent="1" vertex="1">
          <mxGeometry x="400" y="360" width="120" height="80" as="geometry" />
        </mxCell>
        <mxCell id="tP4GP_7Pofm_deBcuKZN-62" value="" style="endArrow=none;html=1;rounded=0;exitX=0.5;exitY=0.5;exitDx=0;exitDy=0;exitPerimeter=0;entryX=0;entryY=0.5;entryDx=0;entryDy=0;" parent="1" source="tP4GP_7Pofm_deBcuKZN-57" target="tP4GP_7Pofm_deBcuKZN-58" edge="1">
          <mxGeometry width="50" height="50" relative="1" as="geometry">
            <mxPoint x="310" y="340" as="sourcePoint" />
            <mxPoint x="360" y="290" as="targetPoint" />
          </mxGeometry>
        </mxCell>
        <mxCell id="tP4GP_7Pofm_deBcuKZN-63" value="" style="endArrow=none;html=1;rounded=0;exitX=0.5;exitY=0.5;exitDx=0;exitDy=0;exitPerimeter=0;entryX=0;entryY=0.5;entryDx=0;entryDy=0;" parent="1" source="tP4GP_7Pofm_deBcuKZN-57" target="tP4GP_7Pofm_deBcuKZN-59" edge="1">
          <mxGeometry width="50" height="50" relative="1" as="geometry">
            <mxPoint x="220" y="280" as="sourcePoint" />
            <mxPoint x="270" y="230" as="targetPoint" />
          </mxGeometry>
        </mxCell>
        <mxCell id="tP4GP_7Pofm_deBcuKZN-64" value="" style="endArrow=none;html=1;rounded=0;entryX=0;entryY=0.5;entryDx=0;entryDy=0;exitX=0.5;exitY=0.5;exitDx=0;exitDy=0;exitPerimeter=0;" parent="1" source="tP4GP_7Pofm_deBcuKZN-57" target="tP4GP_7Pofm_deBcuKZN-60" edge="1">
          <mxGeometry width="50" height="50" relative="1" as="geometry">
            <mxPoint x="145" y="290" as="sourcePoint" />
            <mxPoint x="450" y="260" as="targetPoint" />
          </mxGeometry>
        </mxCell>
        <mxCell id="tP4GP_7Pofm_deBcuKZN-71" value="Ar.gent&lt;br&gt;Website pencari lowongan pekerjaan" style="text;html=1;strokeColor=none;fillColor=none;align=center;verticalAlign=middle;whiteSpace=wrap;rounded=0;" parent="1" vertex="1">
          <mxGeometry x="367.5" y="110" width="135" height="30" as="geometry" />
        </mxCell>
        <mxCell id="CrY2sgzygiTnzJN8wdor-1" value="" style="rounded=0;whiteSpace=wrap;html=1;" vertex="1" parent="1">
          <mxGeometry x="2150" y="80" width="1160" height="720" as="geometry" />
        </mxCell>
        <mxCell id="CrY2sgzygiTnzJN8wdor-2" value="" style="rounded=0;whiteSpace=wrap;html=1;" vertex="1" parent="1">
          <mxGeometry x="2290" y="100" width="920" height="660" as="geometry" />
        </mxCell>
        <mxCell id="CrY2sgzygiTnzJN8wdor-3" value="User &lt;br&gt;" style="shape=umlActor;verticalLabelPosition=bottom;verticalAlign=top;html=1;outlineConnect=0;" vertex="1" parent="1">
          <mxGeometry x="2200" y="430" width="30" height="60" as="geometry" />
        </mxCell>
        <mxCell id="CrY2sgzygiTnzJN8wdor-5" value="Mencari lowongan pekerjaan" style="ellipse;whiteSpace=wrap;html=1;" vertex="1" parent="1">
          <mxGeometry x="2490" y="300" width="120" height="80" as="geometry" />
        </mxCell>
        <mxCell id="CrY2sgzygiTnzJN8wdor-6" value="Melamar pekerjaan" style="ellipse;whiteSpace=wrap;html=1;" vertex="1" parent="1">
          <mxGeometry x="2490" y="420" width="120" height="80" as="geometry" />
        </mxCell>
        <mxCell id="CrY2sgzygiTnzJN8wdor-7" value="Login" style="ellipse;whiteSpace=wrap;html=1;" vertex="1" parent="1">
          <mxGeometry x="2830" y="420" width="120" height="80" as="geometry" />
        </mxCell>
        <mxCell id="CrY2sgzygiTnzJN8wdor-9" value="" style="endArrow=none;html=1;rounded=0;exitX=0.5;exitY=0.5;exitDx=0;exitDy=0;exitPerimeter=0;entryX=0;entryY=0.5;entryDx=0;entryDy=0;" edge="1" parent="1" source="CrY2sgzygiTnzJN8wdor-3" target="CrY2sgzygiTnzJN8wdor-5">
          <mxGeometry width="50" height="50" relative="1" as="geometry">
            <mxPoint x="2300" y="280" as="sourcePoint" />
            <mxPoint x="2350" y="230" as="targetPoint" />
          </mxGeometry>
        </mxCell>
        <mxCell id="CrY2sgzygiTnzJN8wdor-10" value="" style="endArrow=none;html=1;rounded=0;entryX=0;entryY=0.5;entryDx=0;entryDy=0;exitX=0.5;exitY=0.5;exitDx=0;exitDy=0;exitPerimeter=0;" edge="1" parent="1" source="CrY2sgzygiTnzJN8wdor-3" target="CrY2sgzygiTnzJN8wdor-6">
          <mxGeometry width="50" height="50" relative="1" as="geometry">
            <mxPoint x="2225" y="290" as="sourcePoint" />
            <mxPoint x="2530" y="260" as="targetPoint" />
          </mxGeometry>
        </mxCell>
        <mxCell id="CrY2sgzygiTnzJN8wdor-12" value="" style="endArrow=classic;html=1;rounded=0;dashed=1;exitX=1;exitY=0.5;exitDx=0;exitDy=0;entryX=0;entryY=0.5;entryDx=0;entryDy=0;" edge="1" parent="1" source="CrY2sgzygiTnzJN8wdor-5" target="CrY2sgzygiTnzJN8wdor-7">
          <mxGeometry width="50" height="50" relative="1" as="geometry">
            <mxPoint x="2510" y="310" as="sourcePoint" />
            <mxPoint x="2560" y="260" as="targetPoint" />
          </mxGeometry>
        </mxCell>
        <mxCell id="CrY2sgzygiTnzJN8wdor-13" value="" style="endArrow=classic;html=1;rounded=0;dashed=1;exitX=1;exitY=0.5;exitDx=0;exitDy=0;entryX=0;entryY=0.5;entryDx=0;entryDy=0;" edge="1" parent="1" source="CrY2sgzygiTnzJN8wdor-6" target="CrY2sgzygiTnzJN8wdor-7">
          <mxGeometry width="50" height="50" relative="1" as="geometry">
            <mxPoint x="2600" y="399.56999999999994" as="sourcePoint" />
            <mxPoint x="2820" y="399.56999999999994" as="targetPoint" />
          </mxGeometry>
        </mxCell>
        <mxCell id="CrY2sgzygiTnzJN8wdor-15" value="&amp;lt;&amp;lt;include&amp;gt;&amp;gt;" style="text;html=1;strokeColor=none;fillColor=none;align=center;verticalAlign=middle;whiteSpace=wrap;rounded=0;rotation=45;" vertex="1" parent="1">
          <mxGeometry x="2670" y="300" width="60" height="30" as="geometry" />
        </mxCell>
        <mxCell id="CrY2sgzygiTnzJN8wdor-16" value="&amp;lt;&amp;lt;include&amp;gt;&amp;gt;" style="text;html=1;strokeColor=none;fillColor=none;align=center;verticalAlign=middle;whiteSpace=wrap;rounded=0;rotation=20;" vertex="1" parent="1">
          <mxGeometry x="2650" y="380" width="60" height="30" as="geometry" />
        </mxCell>
        <mxCell id="CrY2sgzygiTnzJN8wdor-17" value="Ar.gent&lt;br&gt;Website pencari lowongan pekerjaan" style="text;html=1;strokeColor=none;fillColor=none;align=center;verticalAlign=middle;whiteSpace=wrap;rounded=0;" vertex="1" parent="1">
          <mxGeometry x="2557.5" y="130" width="135" height="30" as="geometry" />
        </mxCell>
        <mxCell id="CrY2sgzygiTnzJN8wdor-18" value="Membuat Lowongan Pekerjaan" style="ellipse;whiteSpace=wrap;html=1;" vertex="1" parent="1">
          <mxGeometry x="2490" y="550" width="120" height="80" as="geometry" />
        </mxCell>
        <mxCell id="CrY2sgzygiTnzJN8wdor-20" value="Menerima atau menolak pelamar" style="ellipse;whiteSpace=wrap;html=1;" vertex="1" parent="1">
          <mxGeometry x="2490" y="660" width="120" height="80" as="geometry" />
        </mxCell>
        <mxCell id="CrY2sgzygiTnzJN8wdor-21" value="" style="endArrow=none;html=1;rounded=0;entryX=0;entryY=0.5;entryDx=0;entryDy=0;exitX=0.5;exitY=0.5;exitDx=0;exitDy=0;exitPerimeter=0;" edge="1" parent="1" target="CrY2sgzygiTnzJN8wdor-18" source="CrY2sgzygiTnzJN8wdor-3">
          <mxGeometry width="50" height="50" relative="1" as="geometry">
            <mxPoint x="2240" y="600" as="sourcePoint" />
            <mxPoint x="2455" y="580" as="targetPoint" />
          </mxGeometry>
        </mxCell>
        <mxCell id="CrY2sgzygiTnzJN8wdor-23" value="" style="endArrow=none;html=1;rounded=0;entryX=0;entryY=0.5;entryDx=0;entryDy=0;exitX=0.5;exitY=0.5;exitDx=0;exitDy=0;exitPerimeter=0;" edge="1" parent="1" target="CrY2sgzygiTnzJN8wdor-20" source="CrY2sgzygiTnzJN8wdor-3">
          <mxGeometry width="50" height="50" relative="1" as="geometry">
            <mxPoint x="2240" y="600" as="sourcePoint" />
            <mxPoint x="2545" y="550" as="targetPoint" />
          </mxGeometry>
        </mxCell>
        <mxCell id="CrY2sgzygiTnzJN8wdor-24" value="&amp;lt;&amp;lt;include&amp;gt;&amp;gt;" style="text;html=1;strokeColor=none;fillColor=none;align=center;verticalAlign=middle;whiteSpace=wrap;rounded=0;rotation=0;" vertex="1" parent="1">
          <mxGeometry x="2650" y="460" width="60" height="30" as="geometry" />
        </mxCell>
        <mxCell id="CrY2sgzygiTnzJN8wdor-25" value="" style="endArrow=classic;html=1;rounded=0;dashed=1;entryX=0;entryY=0.5;entryDx=0;entryDy=0;exitX=1;exitY=0.5;exitDx=0;exitDy=0;" edge="1" parent="1" source="CrY2sgzygiTnzJN8wdor-18" target="CrY2sgzygiTnzJN8wdor-7">
          <mxGeometry width="50" height="50" relative="1" as="geometry">
            <mxPoint x="2615" y="500" as="sourcePoint" />
            <mxPoint x="2834.9999999999995" y="410" as="targetPoint" />
          </mxGeometry>
        </mxCell>
        <mxCell id="CrY2sgzygiTnzJN8wdor-26" value="&amp;lt;&amp;lt;include&amp;gt;&amp;gt;" style="text;html=1;strokeColor=none;fillColor=none;align=center;verticalAlign=middle;whiteSpace=wrap;rounded=0;rotation=-30;" vertex="1" parent="1">
          <mxGeometry x="2670" y="540" width="60" height="30" as="geometry" />
        </mxCell>
        <mxCell id="CrY2sgzygiTnzJN8wdor-29" value="" style="endArrow=classic;html=1;rounded=0;dashed=1;exitX=1;exitY=0.5;exitDx=0;exitDy=0;entryX=0;entryY=0.5;entryDx=0;entryDy=0;" edge="1" parent="1" source="CrY2sgzygiTnzJN8wdor-20" target="CrY2sgzygiTnzJN8wdor-7">
          <mxGeometry width="50" height="50" relative="1" as="geometry">
            <mxPoint x="2629.9999999999827" y="685" as="sourcePoint" />
            <mxPoint x="2849.9999999999995" y="595" as="targetPoint" />
          </mxGeometry>
        </mxCell>
        <mxCell id="CrY2sgzygiTnzJN8wdor-32" value="Manage Profile" style="ellipse;whiteSpace=wrap;html=1;" vertex="1" parent="1">
          <mxGeometry x="2490" y="200" width="120" height="80" as="geometry" />
        </mxCell>
        <mxCell id="CrY2sgzygiTnzJN8wdor-34" value="" style="endArrow=none;html=1;rounded=0;exitX=0.5;exitY=0.5;exitDx=0;exitDy=0;exitPerimeter=0;entryX=0;entryY=0.5;entryDx=0;entryDy=0;" edge="1" parent="1" source="CrY2sgzygiTnzJN8wdor-3" target="CrY2sgzygiTnzJN8wdor-32">
          <mxGeometry width="50" height="50" relative="1" as="geometry">
            <mxPoint x="2300" y="390" as="sourcePoint" />
            <mxPoint x="2350" y="340" as="targetPoint" />
          </mxGeometry>
        </mxCell>
        <mxCell id="CrY2sgzygiTnzJN8wdor-38" value="" style="endArrow=classic;html=1;rounded=0;dashed=1;exitX=1;exitY=0.5;exitDx=0;exitDy=0;entryX=0;entryY=0.5;entryDx=0;entryDy=0;" edge="1" parent="1" source="CrY2sgzygiTnzJN8wdor-32" target="CrY2sgzygiTnzJN8wdor-7">
          <mxGeometry width="50" height="50" relative="1" as="geometry">
            <mxPoint x="2620" y="380" as="sourcePoint" />
            <mxPoint x="2820" y="450" as="targetPoint" />
          </mxGeometry>
        </mxCell>
        <mxCell id="CrY2sgzygiTnzJN8wdor-39" value="&amp;lt;&amp;lt;include&amp;gt;&amp;gt;" style="text;html=1;strokeColor=none;fillColor=none;align=center;verticalAlign=middle;whiteSpace=wrap;rounded=0;rotation=-45;" vertex="1" parent="1">
          <mxGeometry x="2680" y="610" width="60" height="30" as="geometry" />
        </mxCell>
        <mxCell id="CrY2sgzygiTnzJN8wdor-42" value="Admin" style="shape=umlActor;verticalLabelPosition=bottom;verticalAlign=top;html=1;outlineConnect=0;strokeColor=#FF0000;" vertex="1" parent="1">
          <mxGeometry x="3240" y="430" width="30" height="60" as="geometry" />
        </mxCell>
        <mxCell id="CrY2sgzygiTnzJN8wdor-44" value="Memanage user" style="ellipse;whiteSpace=wrap;html=1;" vertex="1" parent="1">
          <mxGeometry x="3010" y="340" width="120" height="80" as="geometry" />
        </mxCell>
        <mxCell id="CrY2sgzygiTnzJN8wdor-45" value="User report" style="ellipse;whiteSpace=wrap;html=1;" vertex="1" parent="1">
          <mxGeometry x="3020" y="490" width="120" height="80" as="geometry" />
        </mxCell>
        <mxCell id="CrY2sgzygiTnzJN8wdor-46" value="" style="endArrow=none;html=1;rounded=0;entryX=0.5;entryY=0.5;entryDx=0;entryDy=0;entryPerimeter=0;exitX=1;exitY=0.5;exitDx=0;exitDy=0;" edge="1" parent="1" source="CrY2sgzygiTnzJN8wdor-44" target="CrY2sgzygiTnzJN8wdor-42">
          <mxGeometry width="50" height="50" relative="1" as="geometry">
            <mxPoint x="3070" y="390" as="sourcePoint" />
            <mxPoint x="3120" y="340" as="targetPoint" />
          </mxGeometry>
        </mxCell>
        <mxCell id="CrY2sgzygiTnzJN8wdor-47" value="" style="endArrow=none;html=1;rounded=0;entryX=0.5;entryY=0.5;entryDx=0;entryDy=0;entryPerimeter=0;exitX=1;exitY=0.5;exitDx=0;exitDy=0;" edge="1" parent="1" source="CrY2sgzygiTnzJN8wdor-45" target="CrY2sgzygiTnzJN8wdor-42">
          <mxGeometry width="50" height="50" relative="1" as="geometry">
            <mxPoint x="2920" y="460" as="sourcePoint" />
            <mxPoint x="2970" y="410" as="targetPoint" />
          </mxGeometry>
        </mxCell>
        <mxCell id="CrY2sgzygiTnzJN8wdor-48" value="" style="endArrow=classic;html=1;rounded=0;dashed=1;exitX=1;exitY=0.5;exitDx=0;exitDy=0;entryX=0;entryY=0.5;entryDx=0;entryDy=0;" edge="1" parent="1">
          <mxGeometry width="50" height="50" relative="1" as="geometry">
            <mxPoint x="2620" y="250" as="sourcePoint" />
            <mxPoint x="2839.9999999999864" y="470" as="targetPoint" />
          </mxGeometry>
        </mxCell>
        <mxCell id="CrY2sgzygiTnzJN8wdor-49" value="" style="endArrow=classic;html=1;rounded=0;dashed=1;exitX=0;exitY=0.616;exitDx=0;exitDy=0;entryX=1;entryY=0.5;entryDx=0;entryDy=0;exitPerimeter=0;" edge="1" parent="1" source="CrY2sgzygiTnzJN8wdor-44" target="CrY2sgzygiTnzJN8wdor-7">
          <mxGeometry width="50" height="50" relative="1" as="geometry">
            <mxPoint x="2630" y="260" as="sourcePoint" />
            <mxPoint x="2849.9999999999864" y="480" as="targetPoint" />
          </mxGeometry>
        </mxCell>
        <mxCell id="CrY2sgzygiTnzJN8wdor-50" value="" style="endArrow=classic;html=1;rounded=0;dashed=1;exitX=0;exitY=0.5;exitDx=0;exitDy=0;entryX=1;entryY=0.5;entryDx=0;entryDy=0;" edge="1" parent="1" source="CrY2sgzygiTnzJN8wdor-45" target="CrY2sgzygiTnzJN8wdor-7">
          <mxGeometry width="50" height="50" relative="1" as="geometry">
            <mxPoint x="2890" y="239.27999999999997" as="sourcePoint" />
            <mxPoint x="2960.000000000015" y="470" as="targetPoint" />
          </mxGeometry>
        </mxCell>
        <mxCell id="CrY2sgzygiTnzJN8wdor-51" value="&amp;lt;&amp;lt;include&amp;gt;&amp;gt;" style="text;html=1;strokeColor=none;fillColor=none;align=center;verticalAlign=middle;whiteSpace=wrap;rounded=0;rotation=-50;" vertex="1" parent="1">
          <mxGeometry x="2945" y="390" width="60" height="30" as="geometry" />
        </mxCell>
        <mxCell id="CrY2sgzygiTnzJN8wdor-52" value="&amp;lt;&amp;lt;include&amp;gt;&amp;gt;" style="text;html=1;strokeColor=none;fillColor=none;align=center;verticalAlign=middle;whiteSpace=wrap;rounded=0;rotation=45;" vertex="1" parent="1">
          <mxGeometry x="2950" y="490" width="60" height="30" as="geometry" />
        </mxCell>
      </root>
    </mxGraphModel>
  </diagram>
</mxfile>
